<?xml version="1.0" encoding="utf-8"?>
<!-- Generator: Adobe Illustrator 24.1.2, SVG Export Plug-In . SVG Version: 6.00 Build 0)  -->
<svg version="1.1" xmlns="http://www.w3.org/2000/svg" xmlns:xlink="http://www.w3.org/1999/xlink" x="0px" y="0px"
	 viewBox="0 0 226.77 226.77" style="enable-background:new 0 0 226.77 226.77;" xml:space="preserve">
<style type="text/css">
	.st0{fill:url(#SVGID_1_);}
	.st1{fill:#FFFFFF;}
	.st2{display:none;}
	.st3{display:inline;}
	.st4{fill:url(#SVGID_2_);}
</style>
<g id="Layer_1">
	<linearGradient id="SVGID_1_" gradientUnits="userSpaceOnUse" x1="221.001" y1="5.7706" x2="5.7706" y2="221.001">
		<stop  offset="0" style="stop-color:#FFA600"/>
		<stop  offset="0.2769" style="stop-color:#FC7C11"/>
		<stop  offset="0.8983" style="stop-color:#F4123A"/>
		<stop  offset="1" style="stop-color:#F30041"/>
	</linearGradient>
	<path class="st0" d="M207.07,226.77H19.7c-10.88,0-19.7-8.82-19.7-19.7V19.7C0,8.82,8.82,0,19.7,0h187.37
		c10.88,0,19.7,8.82,19.7,19.7v187.37C226.77,217.95,217.95,226.77,207.07,226.77z"/>
	<g>
		<g>
			<path class="st1" d="M117.28,83.53H71.27V37.25H43.16v124.39h28.11v-50h36.72L117.28,83.53z M154.97,115.94
				c-4.98,8.49-13.68,14.53-23.87,15.88l29.82,29.82h39.75L154.97,115.94z M165.74,99.67c0,6.08-1.39,11.84-3.88,16.96l18.15,18.15
				c6.66-10.07,10.54-22.13,10.54-35.11c0-33.15-25.29-60.38-57.63-63.47l-8.11,24.56c0.65-0.03,1.31-0.05,1.97-0.05
				C148.29,60.71,165.74,78.15,165.74,99.67z M126.78,138.64c-9.41,0-18.03-3.33-24.77-8.88l-8.12,24.57
				c9.6,5.79,20.85,9.13,32.88,9.13c8.78,0,17.15-1.78,24.77-4.99l-20.11-20.11C129.91,138.53,128.35,138.64,126.78,138.64z"/>
		</g>
	</g>
	<g>
		<path class="st1" d="M77.53,183.98h9.05v2.66h-6.06v3.56h5.52v2.66h-5.52v3.73h6.17v2.66h-9.16V183.98z"/>
		<path class="st1" d="M96.88,191.49l-4.25-7.5h3.6l2.36,4.41l0.52,1.55l0.5-1.55l2.46-4.41h3.25l-4.41,7.35l4.62,7.92h-3.56
			l-2.68-4.71l-0.59-1.61l-0.57,1.61l-2.71,4.71h-3.25L96.88,191.49z"/>
		<path class="st1" d="M121.27,186.64h-4.45v12.61h-2.99v-12.61h-4.47v-2.66h11.91V186.64z"/>
		<path class="st1" d="M127.18,184.14c0.33-0.06,0.69-0.11,1.08-0.16c0.38-0.05,0.77-0.09,1.16-0.12c0.39-0.03,0.76-0.05,1.12-0.07
			c0.36-0.01,0.7-0.02,1-0.02c0.71,0,1.41,0.07,2.11,0.2c0.69,0.13,1.31,0.36,1.85,0.68c0.54,0.32,0.98,0.76,1.31,1.32
			s0.49,1.26,0.49,2.1c0,1.25-0.29,2.27-0.87,3.05c-0.58,0.79-1.36,1.33-2.33,1.64l1.07,0.68l3.49,5.82h-3.45l-3.47-5.98l-1.57-0.28
			v6.26h-2.99V184.14z M131.76,186.43c-0.31,0-0.61,0.01-0.91,0.02c-0.3,0.01-0.53,0.04-0.69,0.09v4.43h1.27
			c0.83,0,1.49-0.19,1.98-0.57c0.5-0.38,0.74-1,0.74-1.88c0-0.65-0.2-1.17-0.61-1.54C133.14,186.61,132.54,186.43,131.76,186.43z"/>
		<path class="st1" d="M151.39,195.87h-4.69l-1.16,3.38h-2.99l5.5-15.38h2.2l5.5,15.38h-3.14L151.39,195.87z M147.46,193.47h3.27
			l-1.13-3.4l-0.46-2.4h-0.11l-0.46,2.42L147.46,193.47z"/>
	</g>
</g>
<g id="Layer_2" class="st2">
	<g class="st3">
		<g>
			
				<linearGradient id="SVGID_2_" gradientUnits="userSpaceOnUse" x1="-145.6373" y1="5.7706" x2="-360.8677" y2="221.001" gradientTransform="matrix(1 0 0 1 366.6383 0)">
				<stop  offset="0" style="stop-color:#EE386F"/>
				<stop  offset="0.2781" style="stop-color:#B8327A"/>
				<stop  offset="0.5211" style="stop-color:#912E83"/>
				<stop  offset="0.7139" style="stop-color:#792B88"/>
				<stop  offset="0.8324" style="stop-color:#702A8A"/>
			</linearGradient>
			<path class="st4" d="M207.07,0H19.7C8.82,0,0,8.82,0,19.7v187.37c0,10.88,8.82,19.7,19.7,19.7h187.37
				c10.88,0,19.7-8.82,19.7-19.7V19.7C226.77,8.82,217.95,0,207.07,0z M132.92,36.2c32.34,3.09,57.63,30.32,57.63,63.47
				c0,12.98-3.89,25.04-10.54,35.11l-18.15-18.15c2.48-5.13,3.88-10.88,3.88-16.96c0-21.52-17.44-38.96-38.96-38.96
				c-0.66,0-1.32,0.02-1.97,0.05L132.92,36.2z M43.16,37.25h28.11v46.28h46.01l-9.29,28.11H71.27v50H43.16V37.25z M72.31,199.49h-1
				l-3.1-10.23l-0.39-2.31h-0.11l-0.39,2.33l-3.1,10.21h-1l-4.36-15.51h1.92l2.75,10.23l0.35,2.53h0.02l0.37-2.57l3.14-10.19h0.87
				l3.16,10.23l0.38,2.53h0.02l0.4-2.57l2.58-10.19h1.75L72.31,199.49z M85.18,199.25h-1.81v-15.27h1.81V199.25z M104.45,194.49
				c-0.27,0.95-0.69,1.8-1.28,2.53c-0.58,0.74-1.34,1.32-2.27,1.77s-2.06,0.67-3.38,0.67c-0.23,0-0.53,0-0.91-0.01
				c-0.37-0.01-0.75-0.02-1.15-0.04c-0.39-0.02-0.76-0.04-1.09-0.05c-0.33-0.01-0.57-0.04-0.72-0.07v-15.29
				c0.28-0.04,0.59-0.08,0.93-0.1c0.34-0.02,0.7-0.04,1.07-0.04c0.37-0.01,0.73-0.01,1.09-0.02c0.36-0.01,0.69-0.01,0.99-0.01
				c1.22,0,2.28,0.19,3.17,0.57c0.89,0.38,1.63,0.91,2.21,1.58c0.58,0.68,1.01,1.49,1.3,2.43s0.43,1.99,0.43,3.12
				C104.86,192.54,104.72,193.53,104.45,194.49z M122.57,198.36c-0.23,0.17-0.51,0.33-0.84,0.48c-0.33,0.15-0.68,0.27-1.05,0.37
				s-0.76,0.18-1.16,0.23s-0.79,0.08-1.17,0.08c-0.97,0-1.87-0.16-2.68-0.47s-1.52-0.79-2.12-1.44c-0.6-0.65-1.06-1.47-1.4-2.47
				c-0.33-1-0.5-2.17-0.5-3.52c0-1.41,0.2-2.62,0.61-3.62c0.41-1,0.94-1.82,1.59-2.45s1.39-1.09,2.2-1.38
				c0.81-0.29,1.63-0.44,2.44-0.44c0.87,0,1.59,0.05,2.16,0.14c0.57,0.09,1.05,0.22,1.44,0.38l-0.46,1.61
				c-0.7-0.35-1.7-0.52-2.99-0.52c-0.61,0-1.22,0.11-1.82,0.32s-1.15,0.56-1.62,1.06c-0.48,0.5-0.87,1.14-1.18,1.94
				c-0.31,0.8-0.46,1.79-0.46,2.97c0,1.08,0.12,2.01,0.37,2.79s0.59,1.44,1.03,1.95c0.44,0.52,0.97,0.9,1.6,1.16
				c0.62,0.25,1.3,0.38,2.04,0.38c0.93,0,1.72-0.18,2.37-0.54v-4.25l-3.56-0.44v-1.03h5.13V198.36z M93.89,154.32l8.12-24.57
				c6.73,5.55,15.36,8.88,24.77,8.88c1.58,0,3.13-0.1,4.66-0.29l20.11,20.11c-7.62,3.21-15.98,4.99-24.77,4.99
				C114.75,163.45,103.5,160.11,93.89,154.32z M138.43,199.25h-8.42v-15.27h8.31v1.61h-6.5v5h5.96v1.61h-5.96v5.43h6.61V199.25z
				 M155.92,185.6h-4.76v13.66h-1.81V185.6h-4.76v-1.61h11.32V185.6z M170.89,196.98c-0.23,0.52-0.58,0.97-1.03,1.35
				c-0.45,0.38-1,0.67-1.64,0.87c-0.64,0.2-1.37,0.31-2.18,0.31c-1.09,0-1.99-0.08-2.71-0.25s-1.26-0.35-1.66-0.56l0.61-1.61
				c0.33,0.18,0.83,0.36,1.48,0.54c0.65,0.18,1.39,0.27,2.2,0.27c0.48,0,0.93-0.05,1.35-0.14c0.42-0.09,0.79-0.25,1.09-0.46
				c0.3-0.21,0.55-0.48,0.73-0.8c0.18-0.32,0.27-0.7,0.27-1.13c0-0.61-0.18-1.11-0.54-1.49c-0.36-0.38-0.82-0.73-1.36-1.03
				c-0.55-0.3-1.14-0.58-1.78-0.84s-1.23-0.58-1.78-0.95c-0.55-0.37-1-0.83-1.36-1.37c-0.36-0.54-0.55-1.24-0.55-2.08
				c0-1.19,0.42-2.14,1.24-2.84c0.83-0.7,2.01-1.05,3.53-1.05c0.89,0,1.69,0.07,2.42,0.2c0.73,0.13,1.29,0.3,1.7,0.5l-0.55,1.61
				c-0.33-0.17-0.83-0.32-1.47-0.47c-0.65-0.15-1.38-0.23-2.19-0.23c-0.96,0-1.68,0.21-2.16,0.64c-0.48,0.43-0.72,0.93-0.72,1.52
				c0,0.57,0.18,1.04,0.55,1.42c0.36,0.38,0.82,0.72,1.36,1.01c0.54,0.3,1.14,0.59,1.78,0.88s1.23,0.63,1.78,1.01
				c0.54,0.39,1,0.85,1.36,1.39c0.36,0.54,0.54,1.21,0.54,2.01C171.24,195.87,171.12,196.46,170.89,196.98z M160.92,161.64
				l-29.82-29.82c10.19-1.35,18.89-7.39,23.87-15.88l45.7,45.7H160.92z M101.87,187.41c-0.39-0.58-0.92-1.06-1.58-1.43
				c-0.66-0.37-1.49-0.56-2.5-0.56h-0.62c-0.23,0-0.45,0.01-0.67,0.02s-0.42,0.03-0.6,0.04c-0.18,0.01-0.32,0.03-0.43,0.04v12.22
				c0.07,0.01,0.21,0.03,0.41,0.03c0.2,0.01,0.41,0.01,0.63,0.02c0.22,0.01,0.43,0.01,0.63,0.02c0.2,0.01,0.34,0.01,0.41,0.01
				c1.02,0,1.87-0.17,2.56-0.52c0.69-0.35,1.24-0.82,1.66-1.41s0.71-1.26,0.88-2.03c0.17-0.76,0.26-1.55,0.26-2.37
				c0-0.71-0.08-1.43-0.24-2.15S102.26,187.99,101.87,187.41z"/>
		</g>
	</g>
</g>
</svg>
